<mxfile host="app.diagrams.net" modified="2023-05-29T09:52:52.701Z" agent="Mozilla/5.0 (Windows NT 10.0; Win64; x64) AppleWebKit/537.36 (KHTML, like Gecko) Chrome/113.0.0.0 Safari/537.36" etag="ybrfbz44gVIdGSXbKdKn" version="21.3.3" type="github">
  <diagram name="Page-1" id="dn_rNpomgNWRbwL0uImY">
    <mxGraphModel dx="883" dy="1866" grid="1" gridSize="10" guides="1" tooltips="1" connect="1" arrows="1" fold="1" page="1" pageScale="1" pageWidth="827" pageHeight="1169" math="0" shadow="0">
      <root>
        <mxCell id="0" />
        <mxCell id="1" parent="0" />
        <mxCell id="YwwrO6ynUDcq92SEWlbL-6" value="" style="edgeStyle=orthogonalEdgeStyle;rounded=0;orthogonalLoop=1;jettySize=auto;html=1;" edge="1" parent="1" source="YwwrO6ynUDcq92SEWlbL-2" target="YwwrO6ynUDcq92SEWlbL-5">
          <mxGeometry relative="1" as="geometry" />
        </mxCell>
        <mxCell id="YwwrO6ynUDcq92SEWlbL-2" value="&lt;font face=&quot;Times New Roman&quot;&gt;Data wrangling&lt;/font&gt;" style="rounded=1;whiteSpace=wrap;html=1;" vertex="1" parent="1">
          <mxGeometry x="160" y="245" width="100" height="30" as="geometry" />
        </mxCell>
        <mxCell id="YwwrO6ynUDcq92SEWlbL-8" value="" style="edgeStyle=orthogonalEdgeStyle;rounded=0;orthogonalLoop=1;jettySize=auto;html=1;" edge="1" parent="1" source="YwwrO6ynUDcq92SEWlbL-5" target="YwwrO6ynUDcq92SEWlbL-7">
          <mxGeometry relative="1" as="geometry" />
        </mxCell>
        <mxCell id="YwwrO6ynUDcq92SEWlbL-5" value="Data augmentation" style="whiteSpace=wrap;html=1;rounded=1;" vertex="1" parent="1">
          <mxGeometry x="310" y="245" width="120" height="30" as="geometry" />
        </mxCell>
        <mxCell id="YwwrO6ynUDcq92SEWlbL-7" value="Feature extraction" style="whiteSpace=wrap;html=1;rounded=1;" vertex="1" parent="1">
          <mxGeometry x="490" y="245" width="120" height="30" as="geometry" />
        </mxCell>
        <mxCell id="YwwrO6ynUDcq92SEWlbL-55" style="edgeStyle=orthogonalEdgeStyle;rounded=0;orthogonalLoop=1;jettySize=auto;html=1;exitX=0.5;exitY=1;exitDx=0;exitDy=0;entryX=0.5;entryY=0;entryDx=0;entryDy=0;endArrow=oval;endFill=1;dashed=1;strokeWidth=1;" edge="1" parent="1" source="YwwrO6ynUDcq92SEWlbL-58" target="YwwrO6ynUDcq92SEWlbL-70">
          <mxGeometry relative="1" as="geometry">
            <Array as="points">
              <mxPoint x="344" y="580" />
              <mxPoint x="507" y="580" />
            </Array>
          </mxGeometry>
        </mxCell>
        <mxCell id="YwwrO6ynUDcq92SEWlbL-56" style="edgeStyle=orthogonalEdgeStyle;rounded=0;orthogonalLoop=1;jettySize=auto;html=1;exitX=0.5;exitY=1;exitDx=0;exitDy=0;entryX=0.5;entryY=0;entryDx=0;entryDy=0;endArrow=oval;endFill=1;dashed=1;strokeWidth=1;" edge="1" parent="1" source="YwwrO6ynUDcq92SEWlbL-58" target="YwwrO6ynUDcq92SEWlbL-64">
          <mxGeometry relative="1" as="geometry">
            <Array as="points">
              <mxPoint x="344" y="580" />
              <mxPoint x="184" y="580" />
            </Array>
          </mxGeometry>
        </mxCell>
        <mxCell id="YwwrO6ynUDcq92SEWlbL-57" style="edgeStyle=orthogonalEdgeStyle;rounded=0;orthogonalLoop=1;jettySize=auto;html=1;exitX=0.5;exitY=1;exitDx=0;exitDy=0;entryX=0.5;entryY=0;entryDx=0;entryDy=0;endArrow=oval;endFill=1;dashed=1;strokeWidth=1;" edge="1" parent="1" source="YwwrO6ynUDcq92SEWlbL-58" target="YwwrO6ynUDcq92SEWlbL-76">
          <mxGeometry relative="1" as="geometry" />
        </mxCell>
        <mxCell id="YwwrO6ynUDcq92SEWlbL-58" value="&lt;b&gt;Smartphone-mounting-vehicle system&lt;/b&gt;" style="rounded=0;whiteSpace=wrap;html=1;strokeColor=default;" vertex="1" parent="1">
          <mxGeometry x="225.85000000000002" y="540" width="236" height="30" as="geometry" />
        </mxCell>
        <mxCell id="YwwrO6ynUDcq92SEWlbL-59" style="edgeStyle=orthogonalEdgeStyle;rounded=0;orthogonalLoop=1;jettySize=auto;html=1;exitX=0;exitY=0.5;exitDx=0;exitDy=0;entryX=1;entryY=0.5;entryDx=0;entryDy=0;endSize=4;" edge="1" parent="1" source="YwwrO6ynUDcq92SEWlbL-61" target="YwwrO6ynUDcq92SEWlbL-80">
          <mxGeometry relative="1" as="geometry">
            <mxPoint x="294.88000000000017" y="810" as="sourcePoint" />
          </mxGeometry>
        </mxCell>
        <mxCell id="YwwrO6ynUDcq92SEWlbL-60" style="edgeStyle=orthogonalEdgeStyle;rounded=0;orthogonalLoop=1;jettySize=auto;html=1;exitX=0.5;exitY=1;exitDx=0;exitDy=0;startArrow=oval;startFill=1;endArrow=oval;endFill=1;" edge="1" parent="1" source="YwwrO6ynUDcq92SEWlbL-61" target="YwwrO6ynUDcq92SEWlbL-94">
          <mxGeometry relative="1" as="geometry">
            <mxPoint x="339.8275862068965" y="869.9999999999998" as="targetPoint" />
          </mxGeometry>
        </mxCell>
        <mxCell id="YwwrO6ynUDcq92SEWlbL-61" value="reference IRI" style="rounded=0;whiteSpace=wrap;html=1;" vertex="1" parent="1">
          <mxGeometry x="295.92" y="800" width="92" height="20" as="geometry" />
        </mxCell>
        <mxCell id="YwwrO6ynUDcq92SEWlbL-62" style="edgeStyle=orthogonalEdgeStyle;rounded=1;orthogonalLoop=1;jettySize=auto;html=1;exitX=0;exitY=0.666;exitDx=0;exitDy=0;exitPerimeter=0;entryX=0;entryY=0.5;entryDx=0;entryDy=0;" edge="1" parent="1" source="YwwrO6ynUDcq92SEWlbL-64" target="YwwrO6ynUDcq92SEWlbL-80">
          <mxGeometry relative="1" as="geometry">
            <mxPoint x="100" y="810" as="targetPoint" />
            <Array as="points">
              <mxPoint x="80" y="613" />
              <mxPoint x="80" y="810" />
            </Array>
          </mxGeometry>
        </mxCell>
        <mxCell id="YwwrO6ynUDcq92SEWlbL-63" style="edgeStyle=orthogonalEdgeStyle;orthogonalLoop=1;jettySize=auto;html=1;exitX=0;exitY=0.25;exitDx=0;exitDy=0;endArrow=none;endFill=0;rounded=1;" edge="1" parent="1">
          <mxGeometry relative="1" as="geometry">
            <mxPoint x="597" y="660" as="targetPoint" />
            <mxPoint x="114" y="607" as="sourcePoint" />
            <Array as="points">
              <mxPoint x="80" y="607" />
              <mxPoint x="80" y="592" />
              <mxPoint x="597" y="592" />
            </Array>
          </mxGeometry>
        </mxCell>
        <mxCell id="YwwrO6ynUDcq92SEWlbL-64" value="Tri-axial accelerometer" style="rounded=0;whiteSpace=wrap;html=1;" vertex="1" parent="1">
          <mxGeometry x="114.00000000000003" y="600" width="140" height="20" as="geometry" />
        </mxCell>
        <mxCell id="YwwrO6ynUDcq92SEWlbL-65" style="edgeStyle=orthogonalEdgeStyle;rounded=1;orthogonalLoop=1;jettySize=auto;html=1;exitX=0;exitY=0.5;exitDx=0;exitDy=0;entryX=0;entryY=0.5;entryDx=0;entryDy=0;startArrow=none;startFill=0;endArrow=none;endFill=0;" edge="1" parent="1" source="YwwrO6ynUDcq92SEWlbL-66" target="YwwrO6ynUDcq92SEWlbL-80">
          <mxGeometry relative="1" as="geometry">
            <Array as="points">
              <mxPoint x="80" y="653" />
              <mxPoint x="80" y="810" />
            </Array>
          </mxGeometry>
        </mxCell>
        <mxCell id="YwwrO6ynUDcq92SEWlbL-66" value="Tri-axial gyroscope" style="rounded=0;whiteSpace=wrap;html=1;" vertex="1" parent="1">
          <mxGeometry x="114.00000000000003" y="642.5" width="120" height="20" as="geometry" />
        </mxCell>
        <mxCell id="YwwrO6ynUDcq92SEWlbL-67" style="edgeStyle=orthogonalEdgeStyle;rounded=1;orthogonalLoop=1;jettySize=auto;html=1;exitX=0;exitY=1;exitDx=0;exitDy=0;entryX=0.5;entryY=0;entryDx=0;entryDy=0;endSize=4;" edge="1" parent="1" source="YwwrO6ynUDcq92SEWlbL-98" target="YwwrO6ynUDcq92SEWlbL-86">
          <mxGeometry relative="1" as="geometry">
            <Array as="points">
              <mxPoint x="342" y="690" />
            </Array>
          </mxGeometry>
        </mxCell>
        <mxCell id="YwwrO6ynUDcq92SEWlbL-68" value="smartphone GPS" style="rounded=0;whiteSpace=wrap;html=1;" vertex="1" parent="1">
          <mxGeometry x="114.00000000000003" y="680" width="120" height="20" as="geometry" />
        </mxCell>
        <mxCell id="YwwrO6ynUDcq92SEWlbL-69" style="edgeStyle=orthogonalEdgeStyle;rounded=1;orthogonalLoop=1;jettySize=auto;html=1;exitX=0.5;exitY=1;exitDx=0;exitDy=0;entryX=0;entryY=0.5;entryDx=0;entryDy=0;endArrow=none;endFill=0;" edge="1" parent="1" source="YwwrO6ynUDcq92SEWlbL-70" target="YwwrO6ynUDcq92SEWlbL-80">
          <mxGeometry relative="1" as="geometry">
            <Array as="points">
              <mxPoint x="507" y="630" />
              <mxPoint x="80" y="630" />
              <mxPoint x="80" y="810" />
            </Array>
          </mxGeometry>
        </mxCell>
        <mxCell id="YwwrO6ynUDcq92SEWlbL-70" value="Vehicle body type" style="rounded=0;whiteSpace=wrap;html=1;" vertex="1" parent="1">
          <mxGeometry x="447.0799999999999" y="600" width="120" height="20" as="geometry" />
        </mxCell>
        <mxCell id="YwwrO6ynUDcq92SEWlbL-75" style="edgeStyle=orthogonalEdgeStyle;rounded=1;orthogonalLoop=1;jettySize=auto;html=1;exitX=0.5;exitY=1;exitDx=0;exitDy=0;endArrow=none;endFill=0;" edge="1" parent="1" source="YwwrO6ynUDcq92SEWlbL-76">
          <mxGeometry relative="1" as="geometry">
            <Array as="points">
              <mxPoint x="344" y="630" />
              <mxPoint x="80" y="630" />
              <mxPoint x="80" y="810" />
            </Array>
            <mxPoint x="100" y="810" as="targetPoint" />
          </mxGeometry>
        </mxCell>
        <mxCell id="YwwrO6ynUDcq92SEWlbL-76" value="Mounting type" style="rounded=0;whiteSpace=wrap;html=1;" vertex="1" parent="1">
          <mxGeometry x="283.92" y="600" width="120" height="20" as="geometry" />
        </mxCell>
        <mxCell id="YwwrO6ynUDcq92SEWlbL-77" value="Data-driven method" style="rounded=0;whiteSpace=wrap;html=1;strokeColor=none;fontStyle=4;opacity=0;" vertex="1" parent="1">
          <mxGeometry x="113.93000000000004" y="740" width="130" height="30" as="geometry" />
        </mxCell>
        <mxCell id="YwwrO6ynUDcq92SEWlbL-79" value="" style="edgeStyle=orthogonalEdgeStyle;rounded=0;orthogonalLoop=1;jettySize=auto;html=1;endSize=4;" edge="1" parent="1" source="YwwrO6ynUDcq92SEWlbL-80" target="YwwrO6ynUDcq92SEWlbL-91">
          <mxGeometry relative="1" as="geometry" />
        </mxCell>
        <mxCell id="YwwrO6ynUDcq92SEWlbL-80" value="" style="shape=image;verticalLabelPosition=bottom;labelBackgroundColor=default;verticalAlign=top;aspect=fixed;imageAspect=0;image=data:image/png,iVBORw0KGgoAAAANSUhEUgAAAYwAAADTCAQAAAA4n+xXAAAABGdBTUEAALGPC/xhBQAAACBjSFJNAAB6JgAAgIQAAPoAAACA6AAAdTAAAOpgAAA6mAAAF3CculE8AAAAAmJLR0QA/4ePzL8AAAAJcEhZcwAAAJAAAACQAPFFumsAABsSSURBVHja7Z3Nq+zIecZ/dfEmWQTkfWKj+wfYoLsLwV7ohkDABIzOxpsBBx2SVQiEvmSTLLLQgeAB7/qGMIuEAfdhmCw8TIKaTLIIzKJ7YYfYzEJthyH4I+a0B8cwJODKotXd6m59VEklHZ3WW1rY90yrWx/11PvU+/G8SlM/VECId/jnmqXeclVDeUT4h39uudcbZEx8qCpgKJ+QgIgNS9bswBAQELJhyVIvr+DmQ0JCfJYs2YHBIyQEliyvbwmQ0RkYKiHmnjXLy9Uzn05wq9dPGhTzHOLr0kUhJOC1vpMpMtGhLw4CVizwNHUHEQ8k9Z8Z64FHQkbY8CmflBT/ad6jHN2OZyW2IuVO3zTRCH3PcwK1UsETtBUr4EUTGdQb/ZIlqZrJ8jlxi2FmK07OmD0tu4FHwgORxRkBK7Eb0zvOydHM+gt8UtInAwtL4OfnJTwQyGSZ0nHYfCuPjJt2viaVsnwK21SV4OnbVmfGxPqF8IsJeqXUgo1+1fJLfFJuxu6jUiFzXrR1wXZ5PjKe7B6DiMyeYpzsNVajp1GNfqiG84VOTY1KdaFRBTq1HvOKqhLodn0qYiZ0alJUygVNUD4rXo6VTnWjUUKnJkmliNzQoPHSqa40SujUNAN8EU48SvoORhruC1m7yO3SW+6IZDGdwngGhLhKCFwSjvIuA9ZXfocyXANDhWycZZGuGafFiFxBX6/xlS/TZgoWw529gOUYiYbywaFT4F5sxjSAEbgDht6yVKOZNipQSb7DcFk7MlarKMM1MLTbaTOe9XRDqALAx6UTWXYZEwGG28jDiOr69JZbFioAHJaq6g1S+DqB8Rnn3/gFlY7o/v6bfyVlKS9axmMD4ztjig2rBf8iL1lGGyrl1vk4KlemmrPWrwoaJ1d4jzL6AgZO/fLheBi4CvD0HbB1uV1WkewxpgEMt7GHkPvR3NuGXVGS28hDIDuWqQDDmV9eBQ6j6J2H3u6uRa/xlecQ+gKMiQAjvPpJ4+welYf/lNW0ZBgDQ2/ZOMuJvXpguMu6kjH6zTf3OFFOUoHjKLpLYESOyJQAY0LAeE2gXGzA53yoRpkuoTe8Zu4A+jPQr2XSTAQYesst864rqkrY8g/MVTpGcOhX+F3Br3xibmXKTGQcJMUWnYo+Ax52KiPEZKQuCkkdl7cerrD1N6T2cnRyPHXt2ruOdGrObe4cfa2fcz8ey6EilalERXh8i0UnGvVrEtqbnMXQELZfUcvszXgsBx4R7/MzYlZt13wCHvgK2VPVd5eji3ZtQtoGGsT8nM9X/JcRgAOPOSs+xCfgoc3V4O8ghceClQg8TwwYuXhxZDnpFqx4i1UVpB4bHASsmOPtpH0IyUjs4M+M7GhpmNk+IzmePDBsGwEcm8cwr4bGY4KDmIxYo+HBpmlMXfMYAqFUkwOGud042Ip80tRD4zHAkVOoYH9XBTj/mZndOLUVF/culGpawMjXxEU1OPD3DWNIjr0xmqAxLDj2FOrEvqWkrPgZb+Z2I66a3HhEpHWTXyjVBIGhwWNGiiZldhSlxCNmTkbG/LASFzw9zdAYChxHClViD/NGN0T5vSREx6smJGHFA4smD5ZQqkk0jqnw3u86tHq5Bz/I2/xuTjKkUl7s/6LmBLxsSj1XMTM23PWTWaU8EoLynrIqIOU5K/288JeQgDAXhfDZmjdrVh5zfG6kL/gVxzE6rM5JsdWYidXo03JcUqiT/7oi0jB3R4KEUk2KSll+yUngzBQafYCjmkIVA5EETn9TKJUAoyYu7LeBhktwnHqh+siWavDQiZdKgFFPp+yg4QYc9RTqSKN6e5BCqQQYzXTKFhpdwVFPoaryuZzvboRSCTCa6JQ9NNqCo4lC9UujhFIJMCzpVBto2IOjmUL1T6OEUgkwrOhUO2jYgKOZQg1Do4RSCTCs6FRbaJiAw4RCDUejhFIJMKzoVHto1IPDjEINS6OEUgkwLOhUF2hUgcOMQg1Po4RSCTAs6FQ3aJyDw5RCPQ6NEkolwLCgU12hcQSHOYV6PBollEqAYUynukNDQ8xP+SXfsIDoYgSPWCiVAKOOTnUmVDsK9VfGrtxHpVFCqQQYxnSqk4eqQKHM4hyPT6OEUgkwDOlUp5BfbBPnMKVR+HlVYkpKSsaiWLMolEqAMRCdapFeWOmFqgaHCY0iJMnLdONCaWuUl7bOzdzBQqkEGI7olGW9RoMXqiLO0UCj8Eh4qLYN+MSszoVzhFIJMHqlU5YFsLHRpwrgaKJRhGQm6lk78AilEmAMRqeMxHYsAnlFcDTRKBu9RYI+7IZQqokDo45ONaoXWgXyTsDxUY0ilpXSoj2QhFIJMDrTqTpomOdCXZz5Pr843XPgH9QSfbI2k5GgD9evUKppA6OGTpVDw45ClXmjznKrksP/Szu1AXC/ERdKNV1g1NOpS2i0oVBl3qjCniPKhadrr6PbXQilEmA4plOn0GhPocq8UTk4/oDMxZrfvu2MUCoBRisisoNGFwpVHdQjJiMj7D6t+6FTQqnGeTwbRAZ0Xd9OWN+y5t/4Z+BlmeKsbR/Ak06rAVs2fJ2tvuv3Ljp881bfcM/KSVNpGWPRrnVCp2I+4Yed6jXK+gAGO2KG72qtZ+U+UUQo1WSpVEPuVE6hOhXA1gb1iJk7ugtn3ySUSoBR69c5SSdvn5ReG2dg4Wqdx9+3LOvtKYmXamrAKNWdOvNCtUxKb8qNcliw1MU9IJRKgGFAp8q9UC2EPZtyo4Jdx1Zndm/W+3MSSjUNr1SZX0cFpGVeKH3LmlR53bxRJyPEZeemNUHvz0m8VNPxSp3SqYYGLzb1Go2Vei77J2k0ZIPZV6FU06BS+eve8najOrlpvYZJpV7itqFZP6khQqkmTKXy8Sm/0xTIMyZUTTTqaVtzoVSPNgYGhopZ8Bf8hLhxUhhAQyVs9P2VU907XpKoRKbq1e4xjl4o06yjxlKmem9UXofhVtYAf6g9hlCqSVCpohfKNOuowWo006i5Cpz7kdz6uIRSTdtilOhCGWa7VlkNE92onV+HL7lc45nz54/kJxEv1XV5pSoCecZJ3KVVfibeqJ2U2pZPyNzREDLe46E/WTahVBOhUpWBPOMk7lJCVUOjlK9iNVcZKQFrPuarLImc3Q3693nOPR5z9aAWaqYCoVRCpTpTqDZ06txqlNOog9jmTlvQz38/0RC5Uj1nViQzeAfdwgEtiFCqIQ6lm9ZIn4jjar3UxltP5ZEQcFsdsVABKS/0xujb5gS81Nv8rOdHe6F8QgJCYMmaZfH7VMqN3iqPjBvdedNc9T3Ky6/Az69g3bMV9pjjc2P25PInHRbe4n3fV/j0RyUwlEdImE+3JbtpGBASsmTZ/PJVwJw1r+r9Rioh0C8NLzWHhlpxp+8LgPCqp6OKdnEOFZHwomsoUC3Y6Fe1E3YwgKgZM26bojjKz9/ihuXBmxbmV7g8XURkGFApEh5Y7AnJ2X/b0YfapA6LHnkWtdjMWfEm7+WUyYrAsOhKP4jIzDK4hqFYTZQKj8W5ZPXJFc7NhErFK1UsHWqUpWRWpetqKa1p7p3yidnwK37eZrrh8dAlZ6rN+X0D5NRLhXciQxTyQNIogppIWZQhMMyFjPFJLwFkrwvVpNh02FQ/sOBjPmxd5We84ru2OH0C5FjxR7K30XgkZGYwNhW4njQwyqd6w2vJijBqpwtV0bPPP6dMO29UhwLYpO3kJnJR7NQPQPaUap9FTEjWZCsu7EbmNgP5qoBBeDrJjXOH0p0ztL0u1Flln1++hzgG9axbz4TEhIS8wfdspswJ/AOnFMgpQHJKdccsv1brSd7u3U8CGHjtVw1SZh2lNRPSKkAU7ErUppRJg09Cwlv8mDdsV0d7K2r13S3cCJXg/YR32jfkxONh+Fj+UwBG0oFD+2S83TaHNZ8en/LLuulxIb9pazUCMt7KtWwfTO0GMx76D6Z1BQgJK1I+5N0uquxu6OKVAaPbxlTDzL6u7Ww6fK1WFb1kJbRsWJYRHFj4zpEZGtiK1ZCraFuAMMspZse+5t1d2lcGjK6uzD2d6vb6a5vMlK6EFgWwWb55jwvr4+73/VJaETMfwla4BEj3vuYu5sFVpYQ0RXSNIrE+KS/rIqnNkWq14r5MYVYl+PqmPlGkNga/4EavQfn4x4SOk9j+mt2Ve4fI9Qjiwkax/YDt7jr3GQGdftFJhsCVpIS4ehhqRqRftHu9dblT57lRdtA4wqJh+m1zYGz6z3VyCRA1A31Xt3i4TXsZ6TT22y9iFedqWLiKfZ46NdsQgjI61diauIZQ7UnUlfDekieKt9syO5Ot9voWIe3luSSuz8WlgOVOpa+bj+U82GdUqVdV5XdVsKgEyFskLtUWh3U4OLniqAMwKs51KmBJRNrVK38W7DPcUFZU+WXX7ZnPAfKffMrfuHMUdHHcP9JzSDsAI60ChsPHgMfWQRy3QKfM/fIlvfyyKQSsSMiIedddKiDhcJJyjWHZmJgkLzrzmZPu/IrEpLurJCZFk5LsPke4+xQRCck+XmV27ikwUpcOOjfftqdTdn75k15+U4HFPG+8qV2mAaIHBbZfwRzyt3l8l3jHRHtmx6tEn9VV6sMZ8T6eb3ZuERja8W06sD87OmXvl99DYyqw0BzSBlPH1GSwaAZR+bUXc7eOHOJIfAirJ3fx33vrYHru/njmWCXJybflQgnW8pu5bMKXmxy0V1Rmtn/ebu92wGen71mr+bl2mArxC1exJGwtOdHy3M+M9IW/Uj/ip/bhKn2r3uEf+T2pae44vq5mA/7a5/guv3nyl/DiM14HkHtXAwwV8Ov8ln3YRgV8kff4a/VSoredxt/q5YDvesGfnv2xVbhOhSVX7bU79xm+07t09W1z/pC5bfPgPMr9VevWM09/eCP+tvp35rHg5oIbLE/mUsj2gt6VzbSw9G/bC7gYnPsMlEtoBDjIL9qpmOtXeDYG/Zj80aIr01PN6MlUAGxKp0T7ETJclljC3SXx1Rvu9iJ5yiM6qM1sixP58IbX+eeK83CfTBOxT3AxPfewNrvUAncQRS9U6gXmiQ7nnqguzZGfkFcq2HlvXEarh9Vzryk1mLEgIiItFKgFrIgISYjR+67rRGRER8cvmjkJIbH9uUd3bexKpU9DwPcc1KIVK/USM0dkmYN2ItD4Iu/zEe+6K0xl1mcvc+tgY1DyrkMNXtGljEdYUKrUJBqCNucegeEwaYwZb3atZr6o1DPQnaqKW1wzNAqCpO+Q8YbD5W3x1AV1qmITlt/hzgwfDVfbcv/LoF4znaoL510fNC4VelkR4LkL1Lrsiv50gaE0KsHTt06qBlb6sxc+ByvRyrJim3oZz6Z6C5NSJlDHzet6nI7eKoVeFRHqW1AL1mVFXta/ExOZiqaO8jmFeXVNx6oSpVEeK24dSB5X1N+ZA6Sq2Kb6m5vLkE6hcR4ZUT4RASHr3B3oEbNkPR7Z4zrJagA1Y62XdgLZtc7TrKlx6ERGvsXJuppPs21yHcWqzo2qolOmOVGHHKq4kH+zkxnLSIjOyFt4uEJ/TJTJzRsQOQQLMYTuyX82jtUqgNSlmJdW9lmkCu6gcez4TcCqfuLnuq7x+AFh56hoSOgTAZ0zYHhkXXwRrPj7NjanAJDv851a/fTzyj7LDNpcKT3MYWYkZZzDxxs9IDISYkL+qEuBK75Irl0AI1fH7qIjmHRJ9ebL/II367xYF5V9lr9GwDv8iNB2svetB94FECf0701+wEdd6FSXOrgrBkY+vb1WBvgBP//fWWuLEzXuQY5Z+bbWYsaKlJSP+MB+mvdjN9wA4mRZe5ek/fQmERpVBYwW3RJyOeHg8LJbTaHLSr1ygOzoVPsypPZ6i+42pW4BUbBqIQnR+RuxgH4q3WArgHHwTxlP7TIVWHtKVVepdwaQr/HAV1rDooPOXneNvj4AkV9ZurP0BdeCleKueUeUCQPjYDdCI1tRqv9qS6lMBA8OAPmU/+ObLYHRadVv69LuCxAFCpUcnntU+FUj3d0+tdyvDBiHSTCvBgc+cZ1iuA2lshE8IOAHfMwHbXKxursi7Vza/QKiSKFqdlYPJNXPiIBEumJYAUODx+xy+h3W7VrY2FAqG8GDXLF8J5RgmIt1UA1x0P3BrIPIEIA4pVC117J7RidXUrjCRGyFJTBOgJCRkZKSoq3Utw0olYVu1FFEpag71QCQvTVys3muo1NDAeKSQhlC9SH3zF0ARQ5rYDjwwNRSKnMadeqJuozwVgFkV4ZF4Kr0hvnFLw8KCBMKJcfogVFPqcxp1EV1XmUCyjlA8FnhMXPmbD2oID0GIEwplBxPABjVlMqURpVW5zW1QD4C5Du87VJADP04gLCnUHKMHBjllMqURlVW5xklzPGX/Jg3XaotkvKNx2LoQqGuDBiXlMpYxTyoJWJ+I+lI8KpEIIdw2gqFEmBYUSozGlWf/NFIp4KDNLRDX73LtglCoQQYJ5TKjEY150QZ0qnELf0YHhhCoYY/BpXo1BteqITv8ht83lw+rWbckqr7wVtIDloTrjwWUN2DUEY/49ngpbSv+F+eETuAxV4V/ZqVBkMy1lqUeK8fGCphzReI1KJaQtMMFjnMvEF1uYd+Vgtunl4PVQGG/asOiLnVG/2CDavyvgXmsMjp1KxRfTdwegeDaOIqT6UEPB9OdVzGY1qMQzMY/YpXpJervSUsTOjU2iUwCBlgqgqFGoV8zoDelUV94K9ddV69d8pt5+ohBCzFCzWtOEZpUK8Y+GtbtNoU7GPlNCWk1yCbBPKmB4yKoN4+8NelpWR9sM9dtLrvVr8SyJtiSsiiNvCX8oMupURldAo/74EQugrK9ZsQIhRqcsBoyo0iYMvHnYBRSqdIWJEQ8oGLtBD7BstCoQQYrWhUcW/RRZeqmk7h8Xd8zB1Z94xY83pDoVACjI406qRo1e8mbVZS2ReTMee7eMy67g5sZBuEQgkwOhKQi+q8DlKfZzKeO1D4BLvWWaSd7FFPNEoo1HSBUadiXlad10XqM6dTe1Dkf4tze9RFXbcXGiUUarLAqPVGVVXndaBUrHjnCIocaPs4yaxt4zHmfdAooVCTBUat/GZTGVKbGHjMx3zKl2omeGY7FXNVP9eizkKhJg2MSgJiUIZkK/W531PUB/uiOg3Fks/P+iA7QqEmDYxqGmUW5TanVMU9hUHulKEeeBvlcKFQAozWNMqqSVgjpToFRXWw79JuNPxy1IutEAo1eWBU5UbZtn2poVSXoKgL9p1N0Dma9FLY8yBpmfZgK4RCPZFD6f6qz8pbE1vWWwAonwWbfSXH4a8xM5bcldd81zVXLnwqypss3x8quSPIGxpve3gmMTdSejTheowqGtWhG9KpLlWFpbChUyc2IjwcPbVnFAolVKqSRnVJLC+kpzeCwpRODfiYhUIJMKq8Ud1gka/sP+QXvGVsCVbjaIsiXqind/SgK6UCYp672FucfUPMjH/iV/yusRzB4+hOnYkaiC6U7DEqaVRXa3GS+2QR+HtsOiUUSqhUDY3quLe4jFPY9Ph7RDolFEqAUeON6lTLXbnRNs2lsvFOiRdKjr6AcUGjOjhoG7xPppTqMeiUUCgBRi2Nai2IY+SSNaVUQ9MpoVACjFoa1VI+zTBOYU6phqRTQqEEGA00qg0s7EBhTqmGolNCoQQYDTTKHhZtQGFOqYagU0KhBBgNNMo6g7Y1KEwpVd90SiiUAKORRtnBojsozChVn3RKKJQAo5FGWZUhOQKFGaXqi04JhRJgNNIoc1i4BYUJpdrTKWbuACIU6jqPxkIl5RNy7Fi0vCyzUSvu9L1dqmB9kVHHtL2IOXflRUoqIdAv1YqTliwqJCy0mVmaJ/ypkAWvpRnYFbZ509VZoeGhum3NJu8mFOLn9W2by0o9M1j0CYq6ir8DjL/Nb+uX+fXuipOWLNld9a5kacOybAmQirzJZ9cy44HFZT20Bo+IhIwU/5RGmZCofuiTGaUiJCXhm/wPb+8a2bMiqSioSkh5qBWiFgo1tT0GPulu2teeOCNjRrqfPAY6UYOBosxLRZBbg5g1CUn9tM/PqNzKixdqcsDYTXhjH9AHeY1EAyyGBsWll+rYOqZuwpf6myLxQk0cGGa24mKKzBrENh8FFOeUiqxwxbGVzy0rwkgo1OSA0Y4eELDi+5UO0kcFRZFS5SroKzvg51BI9lFzoVCTAwYeWVuh+/LA2RhAUaBU3ydq3/plByyhUBOMY6gE2vrjVUDKi6L7tX+XrIXrdkbIhs/yPn/cXpRApfyQz3MjogaTctcSknXhzcU8pPFYivzOwtwidmr9gs9DX2JscoyUSuHZd40op1PjAkV1PldLOrWSCTMpKtWFRhUoS8qP+I8x0KeK1I3O2k4qZS3pH5OhUl1p1OkGdaSGMXPRQQ//cRRH5Bj+eAbEvHKxpdR3+MofZUJYxGaf5tjpDje8JpbFdArjGRDiKg3unmiUdxk4vMNQJs0kgKECNs5ckGuCUd6lM+jrNb7yZNpMwWJEuEubXo5xPVU+fhcx6Yt7jGTaTAEY7mgGestGjQYaKlBxbi/uHX7tcqRWUYZjYIROC23GZDM2zFQA+KwFGDJsgeG2/mxE1Wx6yw1zFQAOIyt6gySFTGC4bxzzOZWM6P7+nQ94T16zjMcHxs/HZDX4E77NT+Q1y7AHhtuQnM8n4xEHUHP+S986t2Dirp3EHgOn0eqA0WRKqQBf3wK4dAioUPYYU9l8u/QjRSMiUhtuc4eAyzsMnfq4ZIwWGGt300YFbMaTW6u3u2vRS6fRardRERmjBYbL7J+QcYqPObMZynMaRZcxXmDoLRvlKmQVjJRmuMvhGiv0ZbjffLvK/lH+aKfNPbEjMhXJDmMaQ2mUR+ZCgVWlLMullEdwmwWF3Q7fMiPSL2TSTGJoRzV8Y67f6yYOJHIIE5bP6Vr1rXxSXo6x2vtwhZ2rvqXie2JUKve2rLhtT6fGTKPc0CmhUROkUl3p1FDNgjvTqdbKUkKjpqxdmzBvAw2ip6KdQdBueuMN0QxZjrGphOzHHVtWdhV4ylMJCTdj3l0UrOOaW1LbpEIVkY2fKMroiUoVCFViajfsPj0aQrVgZdxV1urTclxz4xiPxESw0/Rzo7zpyEzM3/RzckwAGMcuEDWtYDyip2crSixBVNMTPBRbIXGMkr0Ds7xD65LlcQehwkPn1tdPvVupioiIWLIudmhVQd6tdsO97CsmH8eo2loTERDCoZ3xrpXxFeULHaC+b2cM93a9vmVc4/h/M4U7j1JQ/JYAAAAldEVYdGRhdGU6Y3JlYXRlADIwMTYtMDEtMjJUMTQ6MTA6MDUtMDU6MDCjcVgbAAAAJXRFWHRkYXRlOm1vZGlmeQAyMDE2LTAxLTIyVDE0OjEwOjA1LTA1OjAw0izgpwAAABR0RVh0cGRmOlZlcnNpb24AUERGLTEuNSAFXAs5AAAAAElFTkSuQmCC;imageBackground=#FFFFFF;fontColor=#E3E3E3;clipPath=inset(0% 31.67% 0% 0%);" vertex="1" parent="1">
          <mxGeometry x="127.04000000000002" y="769.5" width="103.78" height="81" as="geometry" />
        </mxCell>
        <mxCell id="YwwrO6ynUDcq92SEWlbL-81" style="edgeStyle=orthogonalEdgeStyle;rounded=1;orthogonalLoop=1;jettySize=auto;html=1;exitX=1.002;exitY=0.833;exitDx=0;exitDy=0;endArrow=none;endFill=0;exitPerimeter=0;" edge="1" parent="1">
          <mxGeometry relative="1" as="geometry">
            <mxPoint x="597" y="702" as="targetPoint" />
            <mxPoint x="405.16013999999996" y="669.4074999999998" as="sourcePoint" />
            <Array as="points">
              <mxPoint x="597" y="669" />
            </Array>
          </mxGeometry>
        </mxCell>
        <mxCell id="YwwrO6ynUDcq92SEWlbL-85" style="edgeStyle=orthogonalEdgeStyle;rounded=0;orthogonalLoop=1;jettySize=auto;html=1;exitX=0.5;exitY=1;exitDx=0;exitDy=0;entryX=0.5;entryY=0;entryDx=0;entryDy=0;endSize=4;" edge="1" parent="1" source="YwwrO6ynUDcq92SEWlbL-86" target="YwwrO6ynUDcq92SEWlbL-61">
          <mxGeometry relative="1" as="geometry" />
        </mxCell>
        <mxCell id="YwwrO6ynUDcq92SEWlbL-86" value="&lt;b&gt;Ground-truth profiler&lt;/b&gt;" style="rounded=0;whiteSpace=wrap;html=1;" vertex="1" parent="1">
          <mxGeometry x="276.81" y="745" width="130.23" height="20" as="geometry" />
        </mxCell>
        <mxCell id="YwwrO6ynUDcq92SEWlbL-89" value="provides" style="rounded=0;whiteSpace=wrap;html=1;strokeColor=none;opacity=0;" vertex="1" parent="1">
          <mxGeometry x="338.51" y="770" width="55.41" height="15" as="geometry" />
        </mxCell>
        <mxCell id="YwwrO6ynUDcq92SEWlbL-90" style="edgeStyle=orthogonalEdgeStyle;rounded=1;orthogonalLoop=1;jettySize=auto;html=1;exitX=0.5;exitY=1;exitDx=0;exitDy=0;entryX=0;entryY=0.5;entryDx=0;entryDy=0;endSize=4;" edge="1" parent="1" source="YwwrO6ynUDcq92SEWlbL-91" target="YwwrO6ynUDcq92SEWlbL-97">
          <mxGeometry relative="1" as="geometry" />
        </mxCell>
        <mxCell id="YwwrO6ynUDcq92SEWlbL-91" value="&lt;font color=&quot;#0f0f0f&quot;&gt;DL model&lt;/font&gt;" style="whiteSpace=wrap;html=1;verticalAlign=top;fontColor=#E3E3E3;labelBackgroundColor=default;" vertex="1" parent="1">
          <mxGeometry x="138.39999999999998" y="875" width="81.07" height="25" as="geometry" />
        </mxCell>
        <mxCell id="YwwrO6ynUDcq92SEWlbL-94" value="&lt;font style=&quot;font-size: 12px;&quot;&gt;reference profile&lt;/font&gt;" style="whiteSpace=wrap;html=1;verticalAlign=top;labelBackgroundColor=default;" vertex="1" parent="1">
          <mxGeometry x="290" y="840" width="103.57" height="25" as="geometry" />
        </mxCell>
        <mxCell id="YwwrO6ynUDcq92SEWlbL-97" value="estimated IRI" style="whiteSpace=wrap;html=1;verticalAlign=top;labelBackgroundColor=default;" vertex="1" parent="1">
          <mxGeometry x="296.93" y="920" width="90" height="25" as="geometry" />
        </mxCell>
        <mxCell id="YwwrO6ynUDcq92SEWlbL-98" value="&amp;nbsp;synchronize" style="rounded=0;whiteSpace=wrap;html=1;strokeColor=none;opacity=0;" vertex="1" parent="1">
          <mxGeometry x="234" y="675" width="100" height="15" as="geometry" />
        </mxCell>
        <mxCell id="YwwrO6ynUDcq92SEWlbL-99" value="train" style="rounded=0;whiteSpace=wrap;html=1;strokeColor=none;opacity=0;" vertex="1" parent="1">
          <mxGeometry x="180" y="851" width="31.41" height="15" as="geometry" />
        </mxCell>
      </root>
    </mxGraphModel>
  </diagram>
</mxfile>
